<?xml version="1.0" standalone="no"?>
<!DOCTYPE svg PUBLIC "-//W3C//DTD SVG 20010904//EN"
    "http://www.w3.org/TR/2001/REC-SVG-20010904/DTD/svg10.dtd">
<svg version="1.0" xmlns="http://www.w3.org/2000/svg"
     width="240.000000pt" height="240.000000pt" viewBox="0 0 240.000000 240.000000"
     preserveAspectRatio="xMidYMid meet">
    <metadata>
        Created by potrace 1.14, written by Peter Selinger 2001-2017
    </metadata>
    <g transform="translate(0.000000,240.000000) scale(0.100000,-0.100000)"
       fill="#000000" stroke="none">
        <path d="M1165 2325 c-16 -8 -45 -20 -64 -27 -63 -24 -311 -148 -377 -188 -35
-22 -67 -40 -70 -40 -3 0 -20 -11 -38 -25 -18 -14 -38 -25 -44 -25 -7 0 -12
-4 -12 -10 0 -5 -5 -10 -11 -10 -11 0 -156 -110 -218 -165 -94 -84 -217 -215
-260 -278 -8 -12 -23 -31 -33 -41 -19 -21 -18 -66 3 -176 6 -30 12 -66 14 -80
1 -14 8 -45 15 -70 7 -25 14 -58 17 -73 2 -16 11 -46 18 -67 7 -21 11 -41 7
-45 -4 -3 -1 -9 5 -13 6 -4 13 -21 16 -38 3 -17 11 -42 18 -55 7 -13 12 -26
12 -29 -2 -26 44 -141 125 -310 30 -63 55 -118 54 -122 -1 -3 5 -12 13 -18 8
-7 15 -18 15 -25 0 -7 7 -18 15 -25 8 -7 12 -16 9 -21 -3 -5 -1 -9 4 -9 5 0
13 -8 16 -17 7 -21 54 -101 76 -130 8 -11 33 -24 55 -28 22 -5 45 -9 50 -10
104 -24 280 -47 455 -60 130 -10 287 -6 390 10 14 2 59 7 100 10 41 4 79 9 84
12 5 4 24 8 40 9 17 1 54 7 81 14 28 6 61 14 75 16 14 3 32 7 40 11 8 3 24 8
34 10 11 2 20 4 21 6 48 76 93 157 87 157 -4 0 -2 4 5 8 17 11 178 343 182
375 0 4 8 22 17 39 9 18 21 46 26 62 20 66 89 333 93 361 8 48 12 76 24 140
23 135 23 142 -1 177 -52 74 -161 198 -243 276 -48 45 -89 82 -91 82 -2 0 -12
8 -23 18 -10 9 -33 28 -51 42 -17 14 -37 30 -44 35 -6 6 -31 23 -56 40 -25 16
-47 32 -50 35 -25 28 -385 221 -394 212 -3 -3 -6 0 -6 6 0 6 -13 13 -30 17
-16 4 -30 11 -30 16 0 6 -4 8 -8 5 -4 -2 -26 4 -49 14 -62 28 -76 30 -108 15z"/>
    </g>
</svg>
